# xmcd
# Track frame offsets:
# 150
# 17389
# 28851
# 44834
# 57615
# 72297
# 86640
# 100813
# 116036
# 133162
# 151668
# 170599
# 184716
# 200967
# 220046
#
# Disc length: 3237 seconds
# Revision: 0
# Processed by: cddbd v1.5.2PL0 Copyright (c) Steve Scherf et al.
# Submitted via: VisiTrax 2.10.0.248 - For more info visit www.synapsa.com
#
DISCID=dc0ca30f
DTITLE=Reali, J. P. - Cold Steel Blues
DYEAR=2007
DGENRE=Blues
TTITLE0=Crossroads Blues
TTITLE1=Bluesin' In NYC
TTITLE2=Rush Hour Rag
TTITLE3=Crazy 'Blout A Barbecue
TTITLE4=Wanderin' Woman Blues
TTITLE5=Let It Rock
TTITLE6=Sally, Where'd You Get Your Liquor From?
TTITLE7=Sunny 68 Degrees
TTITLE8=Busted Bay Blues
TTITLE9=Statesboro Blues
TTITLE10=Casey Jones
TTITLE11=My Name Is Morgan
TTITLE12=Obyions Reflections
TTITLE13=Derailed
TTITLE14=Cold Steel Blues
EXTD=
EXTT0=
EXTT1=
EXTT2=
EXTT3=
EXTT4=
EXTT5=
EXTT6=
EXTT7=
EXTT8=
EXTT9=
EXTT10=
EXTT11=
EXTT12=
EXTT13=
EXTT14=
PLAYORDER=
